<svg width="78" height="79" viewBox="0 0 78 79" fill="none" xmlns="http://www.w3.org/2000/svg">
<path d="M6.5 69.125V29.625L32.5 9.875L49.9688 23.2063C48.6146 23.3708 47.3417 23.6863 46.15 24.1526C44.9583 24.6189 43.8208 25.2361 42.7375 26.0042L32.5 18.1042L13 32.9167V62.5417H26V69.125H6.5ZM32.5 69.125V62.8708C32.5 61.7188 32.7844 60.6352 33.3531 59.6203C33.9219 58.6054 34.6937 57.7962 35.6687 57.1927C38.1604 55.7115 40.774 54.5868 43.5094 53.8188C46.2448 53.0507 49.075 52.6667 52 52.6667C54.925 52.6667 57.7552 53.0507 60.4906 53.8188C63.226 54.5868 65.8396 55.7115 68.3312 57.1927C69.3062 57.7962 70.0781 58.6054 70.6469 59.6203C71.2156 60.6352 71.5 61.7188 71.5 62.8708V69.125H32.5ZM39.4875 62.5417H64.5125C62.6167 61.4444 60.6125 60.6215 58.5 60.0729C56.3875 59.5243 54.2208 59.25 52 59.25C49.7792 59.25 47.6125 59.5243 45.5 60.0729C43.3875 60.6215 41.3833 61.4444 39.4875 62.5417ZM52 49.375C49.2917 49.375 46.9896 48.4149 45.0938 46.4948C43.1979 44.5747 42.25 42.2431 42.25 39.5C42.25 36.7569 43.1979 34.4253 45.0938 32.5052C46.9896 30.5851 49.2917 29.625 52 29.625C54.7083 29.625 57.0104 30.5851 58.9062 32.5052C60.8021 34.4253 61.75 36.7569 61.75 39.5C61.75 42.2431 60.8021 44.5747 58.9062 46.4948C57.0104 48.4149 54.7083 49.375 52 49.375ZM52 42.7917C52.9208 42.7917 53.6927 42.4762 54.3156 41.8453C54.9385 41.2144 55.25 40.4326 55.25 39.5C55.25 38.5674 54.9385 37.7856 54.3156 37.1547C53.6927 36.5238 52.9208 36.2083 52 36.2083C51.0792 36.2083 50.3073 36.5238 49.6844 37.1547C49.0615 37.7856 48.75 38.5674 48.75 39.5C48.75 40.4326 49.0615 41.2144 49.6844 41.8453C50.3073 42.4762 51.0792 42.7917 52 42.7917Z" fill="#467452"/>
</svg>
