<svg width="71" height="70" viewBox="0 0 71 70" fill="none" xmlns="http://www.w3.org/2000/svg">
<path d="M8.875 64.1667C7.24792 64.1667 5.85504 63.5955 4.69636 62.4531C3.53768 61.3108 2.95834 59.9375 2.95834 58.3333V26.25H8.875V58.3333H59.1667V64.1667H8.875ZM20.7083 52.5C19.0813 52.5 17.6884 51.9288 16.5297 50.7864C15.371 49.6441 14.7917 48.2708 14.7917 46.6667V14.5833H29.5833V8.74999C29.5833 7.14582 30.1627 5.77256 31.3214 4.6302C32.48 3.48784 33.8729 2.91666 35.5 2.91666H47.3333C48.9604 2.91666 50.3533 3.48784 51.512 4.6302C52.6707 5.77256 53.25 7.14582 53.25 8.74999V14.5833H68.0417V46.6667C68.0417 48.2708 67.4623 49.6441 66.3036 50.7864C65.145 51.9288 63.7521 52.5 62.125 52.5H20.7083ZM20.7083 46.6667H62.125V20.4167H20.7083V46.6667ZM35.5 14.5833H47.3333V8.74999H35.5V14.5833Z" fill="#467452"/>
</svg>
