<svg width="64" height="61" viewBox="0 0 64 61" fill="none" xmlns="http://www.w3.org/2000/svg">
<path d="M16 55.9167C13.7778 55.9167 11.8889 55.1753 10.3333 53.6927C8.77778 52.2101 8 50.4097 8 48.2917V40.6667H16V5.08333H56V48.2917C56 50.4097 55.2222 52.2101 53.6667 53.6927C52.1111 55.1753 50.2222 55.9167 48 55.9167H16ZM48 50.8333C48.7556 50.8333 49.3889 50.5898 49.9 50.1026C50.4111 49.6154 50.6667 49.0118 50.6667 48.2917V10.1667H21.3333V40.6667H45.3333V48.2917C45.3333 49.0118 45.5889 49.6154 46.1 50.1026C46.6111 50.5898 47.2444 50.8333 48 50.8333ZM24 22.875V17.7917H48V22.875H24ZM24 30.5V25.4167H48V30.5H24ZM16 50.8333H40V45.75H13.3333V48.2917C13.3333 49.0118 13.5889 49.6154 14.1 50.1026C14.6111 50.5898 15.2444 50.8333 16 50.8333ZM16 50.8333H13.3333H40H16Z" fill="#467452"/>
</svg>
