<svg width="64" height="67" viewBox="0 0 64 67" fill="none" xmlns="http://www.w3.org/2000/svg">
<g clip-path="url(#clip0_2_2936)">
<path d="M0 50.25V45.8531C0 43.8524 0.977778 42.224 2.93333 40.9677C4.88889 39.7115 7.46667 39.0833 10.6667 39.0833C11.2444 39.0833 11.8 39.095 12.3333 39.1182C12.8667 39.1415 13.3778 39.1997 13.8667 39.2927C13.2444 40.2698 12.7778 41.2934 12.4667 42.3635C12.1556 43.4337 12 44.5503 12 45.7135V50.25H0ZM16 50.25V45.7135C16 44.2247 16.3889 42.8637 17.1667 41.6307C17.9444 40.3977 19.0444 39.316 20.4667 38.3854C21.8889 37.4549 23.5889 36.7569 25.5667 36.2917C27.5444 35.8264 29.6889 35.5938 32 35.5938C34.3556 35.5938 36.5222 35.8264 38.5 36.2917C40.4778 36.7569 42.1778 37.4549 43.6 38.3854C45.0222 39.316 46.1111 40.3977 46.8667 41.6307C47.6222 42.8637 48 44.2247 48 45.7135V50.25H16ZM52 50.25V45.7135C52 44.5038 51.8556 43.3639 51.5667 42.2938C51.2778 41.2236 50.8444 40.2233 50.2667 39.2927C50.7556 39.1997 51.2556 39.1415 51.7667 39.1182C52.2778 39.095 52.8 39.0833 53.3333 39.0833C56.5333 39.0833 59.1111 39.6998 61.0667 40.9328C63.0222 42.1658 64 43.8059 64 45.8531V50.25H52ZM21.6667 44.6667H42.4C41.9556 43.7361 40.7222 42.9219 38.7 42.224C36.6778 41.526 34.4444 41.1771 32 41.1771C29.5556 41.1771 27.3222 41.526 25.3 42.224C23.2778 42.9219 22.0667 43.7361 21.6667 44.6667ZM10.6667 36.2917C9.2 36.2917 7.94444 35.745 6.9 34.6516C5.85556 33.5582 5.33333 32.2438 5.33333 30.7083C5.33333 29.1264 5.85556 27.8003 6.9 26.7302C7.94444 25.6601 9.2 25.125 10.6667 25.125C12.1778 25.125 13.4444 25.6601 14.4667 26.7302C15.4889 27.8003 16 29.1264 16 30.7083C16 32.2438 15.4889 33.5582 14.4667 34.6516C13.4444 35.745 12.1778 36.2917 10.6667 36.2917ZM53.3333 36.2917C51.8667 36.2917 50.6111 35.745 49.5667 34.6516C48.5222 33.5582 48 32.2438 48 30.7083C48 29.1264 48.5222 27.8003 49.5667 26.7302C50.6111 25.6601 51.8667 25.125 53.3333 25.125C54.8444 25.125 56.1111 25.6601 57.1333 26.7302C58.1556 27.8003 58.6667 29.1264 58.6667 30.7083C58.6667 32.2438 58.1556 33.5582 57.1333 34.6516C56.1111 35.745 54.8444 36.2917 53.3333 36.2917ZM32 33.5C29.7778 33.5 27.8889 32.6858 26.3333 31.0573C24.7778 29.4288 24 27.4514 24 25.125C24 22.7521 24.7778 20.763 26.3333 19.1578C27.8889 17.5526 29.7778 16.75 32 16.75C34.2667 16.75 36.1667 17.5526 37.7 19.1578C39.2333 20.763 40 22.7521 40 25.125C40 27.4514 39.2333 29.4288 37.7 31.0573C36.1667 32.6858 34.2667 33.5 32 33.5ZM32 27.9167C32.7556 27.9167 33.3889 27.6491 33.9 27.1141C34.4111 26.579 34.6667 25.916 34.6667 25.125C34.6667 24.334 34.4111 23.671 33.9 23.1359C33.3889 22.6009 32.7556 22.3333 32 22.3333C31.2444 22.3333 30.6111 22.6009 30.1 23.1359C29.5889 23.671 29.3333 24.334 29.3333 25.125C29.3333 25.916 29.5889 26.579 30.1 27.1141C30.6111 27.6491 31.2444 27.9167 32 27.9167Z" fill="#467452"/>
</g>
<defs>
<clipPath id="clip0_2_2936">
<rect width="64" height="67" fill="white"/>
</clipPath>
</defs>
</svg>
