<svg width="67" height="67" viewBox="0 0 67 67" fill="none" xmlns="http://www.w3.org/2000/svg">
<path d="M33.5 58.625C27.0792 58.625 21.4842 56.4964 16.7151 52.2391C11.946 47.9818 9.2125 42.666 8.51458 36.2917H14.2375C14.8889 41.1306 17.0408 45.1319 20.6932 48.2958C24.3457 51.4597 28.6146 53.0417 33.5 53.0417C38.9438 53.0417 43.5616 51.1457 47.3536 47.3536C51.1457 43.5616 53.0417 38.9438 53.0417 33.5C53.0417 28.0562 51.1457 23.4384 47.3536 19.6464C43.5616 15.8543 38.9438 13.9583 33.5 13.9583C30.2896 13.9583 27.2885 14.7028 24.4969 16.1917C21.7052 17.6806 19.3556 19.7278 17.4479 22.3333H25.125V27.9167H8.375V11.1667H13.9583V17.7271C16.3313 14.7493 19.2276 12.4462 22.6474 10.8177C26.0672 9.18924 29.6847 8.375 33.5 8.375C36.9896 8.375 40.2582 9.03802 43.3057 10.3641C46.3533 11.6901 49.0054 13.4814 51.262 15.738C53.5186 17.9946 55.3099 20.6467 56.6359 23.6943C57.962 26.7418 58.625 30.0104 58.625 33.5C58.625 36.9896 57.962 40.2582 56.6359 43.3057C55.3099 46.3533 53.5186 49.0054 51.262 51.262C49.0054 53.5186 46.3533 55.3099 43.3057 56.6359C40.2582 57.962 36.9896 58.625 33.5 58.625ZM41.3167 45.225L30.7083 34.6167V19.5417H36.2917V32.3833L45.225 41.3167L41.3167 45.225Z" fill="#467452"/>
</svg>
