<svg width="69" height="65" viewBox="0 0 69 65" fill="none" xmlns="http://www.w3.org/2000/svg">
<path d="M40.25 35.2083C37.8542 35.2083 35.8177 34.4184 34.1406 32.8385C32.4635 31.2587 31.625 29.3403 31.625 27.0833C31.625 24.8264 32.4635 22.908 34.1406 21.3281C35.8177 19.7483 37.8542 18.9583 40.25 18.9583C42.6458 18.9583 44.6823 19.7483 46.3594 21.3281C48.0365 22.908 48.875 24.8264 48.875 27.0833C48.875 29.3403 48.0365 31.2587 46.3594 32.8385C44.6823 34.4184 42.6458 35.2083 40.25 35.2083ZM20.125 43.3333C18.5437 43.3333 17.1901 42.8029 16.0641 41.7422C14.938 40.6814 14.375 39.4062 14.375 37.9167V16.25C14.375 14.7604 14.938 13.4852 16.0641 12.4245C17.1901 11.3637 18.5437 10.8333 20.125 10.8333H60.375C61.9562 10.8333 63.3099 11.3637 64.4359 12.4245C65.562 13.4852 66.125 14.7604 66.125 16.25V37.9167C66.125 39.4062 65.562 40.6814 64.4359 41.7422C63.3099 42.8029 61.9562 43.3333 60.375 43.3333H20.125ZM25.875 37.9167H54.625C54.625 36.4271 55.188 35.1519 56.3141 34.0911C57.4401 33.0304 58.7937 32.5 60.375 32.5V21.6667C58.7937 21.6667 57.4401 21.1363 56.3141 20.0755C55.188 19.0148 54.625 17.7396 54.625 16.25H25.875C25.875 17.7396 25.312 19.0148 24.1859 20.0755C23.0599 21.1363 21.7062 21.6667 20.125 21.6667V32.5C21.7062 32.5 23.0599 33.0304 24.1859 34.0911C25.312 35.1519 25.875 36.4271 25.875 37.9167ZM57.5 54.1667H8.625C7.04375 54.1667 5.6901 53.6363 4.56406 52.5755C3.43802 51.5147 2.875 50.2396 2.875 48.75V18.9583H8.625V48.75H57.5V54.1667Z" fill="#467452"/>
</svg>
