<svg width="66" height="76" viewBox="0 0 66 76" fill="none" xmlns="http://www.w3.org/2000/svg">
<path d="M16.5 50.6667H38.5V44.3333H16.5V50.6667ZM16.5 38H49.5V31.6667H16.5V38ZM11 63.3333C9.4875 63.3333 8.19271 62.7132 7.11563 61.4729C6.03854 60.2326 5.5 58.7417 5.5 57V19C5.5 17.2583 6.03854 15.7674 7.11563 14.5271C8.19271 13.2868 9.4875 12.6667 11 12.6667H27.5L33 19H55C56.5125 19 57.8073 19.6201 58.8844 20.8604C59.9615 22.1007 60.5 23.5917 60.5 25.3333V57C60.5 58.7417 59.9615 60.2326 58.8844 61.4729C57.8073 62.7132 56.5125 63.3333 55 63.3333H11ZM11 57H55V25.3333H30.7313L25.2313 19H11V57Z" fill="#467452"/>
</svg>
